<mxfile host="65bd71144e" modified="2023-06-16T16:18:28.895Z" agent="Mozilla/5.0 (Macintosh; Intel Mac OS X 13_4_0) AppleWebKit/537.36 (KHTML, like Gecko) Code/1.79.1 Chrome/108.0.5359.215 Electron/22.5.7 Safari/537.36" etag="bK31QTp2Rm-mvtYBGScI" version="21.4.0" type="embed">
    <diagram id="SgoCRJlDQVXVclui49dq" name="Page-1">
        <mxGraphModel dx="669" dy="800" grid="1" gridSize="10" guides="1" tooltips="1" connect="1" arrows="1" fold="1" page="1" pageScale="1" pageWidth="850" pageHeight="1100" background="#ffffff" math="0" shadow="0">
            <root>
                <mxCell id="0"/>
                <mxCell id="1" parent="0"/>
                <mxCell id="56" value="" style="rounded=0;whiteSpace=wrap;html=1;fillColor=#FF0000;fontColor=#ffffff;strokeColor=none;opacity=50;" vertex="1" parent="1">
                    <mxGeometry x="440" y="130" width="180" height="450" as="geometry"/>
                </mxCell>
                <mxCell id="40" value="" style="group" vertex="1" connectable="0" parent="1">
                    <mxGeometry x="40" y="260" width="380" height="170" as="geometry"/>
                </mxCell>
                <mxCell id="41" value="" style="rounded=1;whiteSpace=wrap;html=1;strokeColor=#000000;fillColor=#CCCCCC;fontColor=#000000;strokeWidth=2;fontSize=17;align=left;" vertex="1" parent="40">
                    <mxGeometry width="380" height="170" as="geometry"/>
                </mxCell>
                <mxCell id="42" value="&lt;font style=&quot;font-size: 27px;&quot; color=&quot;#000000&quot;&gt;Python Development Tool&lt;/font&gt;" style="text;html=1;strokeColor=none;fillColor=none;align=center;verticalAlign=middle;whiteSpace=wrap;rounded=0;" vertex="1" parent="40">
                    <mxGeometry x="38.261132227452364" y="33.26086956521739" width="124.34867973922019" height="103.4782608695652" as="geometry"/>
                </mxCell>
                <mxCell id="43" value="&lt;font style=&quot;font-size: 20px;&quot;&gt;Python Debugger&lt;/font&gt;" style="rounded=0;whiteSpace=wrap;html=1;strokeColor=#000000;fillColor=#FFFFFF;strokeWidth=2;fontColor=#000000;" vertex="1" parent="40">
                    <mxGeometry x="210.436227250988" y="59.1304347826087" width="143.47924585294638" height="51.7391304347826" as="geometry"/>
                </mxCell>
                <mxCell id="44" value="" style="group" vertex="1" connectable="0" parent="1">
                    <mxGeometry x="40" y="450" width="380" height="180" as="geometry"/>
                </mxCell>
                <mxCell id="45" value="" style="rounded=1;whiteSpace=wrap;html=1;strokeColor=#000000;fillColor=#CCCCCC;fontColor=#000000;strokeWidth=2;fontSize=17;align=left;" vertex="1" parent="44">
                    <mxGeometry width="380" height="180" as="geometry"/>
                </mxCell>
                <mxCell id="46" value="&lt;font style=&quot;font-size: 27px;&quot; color=&quot;#000000&quot;&gt;Visual Studio Code&lt;/font&gt;" style="text;html=1;strokeColor=none;fillColor=none;align=center;verticalAlign=middle;whiteSpace=wrap;rounded=0;" vertex="1" parent="44">
                    <mxGeometry x="38.261132227452364" y="35.21739130434783" width="124.34867973922019" height="109.56521739130433" as="geometry"/>
                </mxCell>
                <mxCell id="47" value="&lt;font style=&quot;font-size: 20px;&quot;&gt;Java Debugger&lt;/font&gt;" style="rounded=0;whiteSpace=wrap;html=1;strokeColor=#000000;fillColor=#FFFFFF;strokeWidth=2;fontColor=#000000;" vertex="1" parent="44">
                    <mxGeometry x="210.436227250988" y="29.998695652173915" width="143.47924585294638" height="54.782608695652165" as="geometry"/>
                </mxCell>
                <mxCell id="48" value="&lt;font style=&quot;font-size: 20px;&quot;&gt;Python Debugger&lt;/font&gt;" style="rounded=0;whiteSpace=wrap;html=1;strokeColor=#000000;fillColor=#FFFFFF;strokeWidth=2;fontColor=#000000;" vertex="1" parent="44">
                    <mxGeometry x="210.436227250988" y="97.50000000000001" width="143.47924585294638" height="54.782608695652165" as="geometry"/>
                </mxCell>
                <mxCell id="50" value="&lt;font style=&quot;font-size: 20px;&quot;&gt;Generic Java Debugger&lt;/font&gt;" style="rounded=0;whiteSpace=wrap;html=1;strokeColor=#000000;fillColor=#FFFFFF;strokeWidth=2;fontColor=#000000;" vertex="1" parent="1">
                    <mxGeometry x="640" y="210" width="150" height="73.04347826086956" as="geometry"/>
                </mxCell>
                <mxCell id="51" value="&lt;font style=&quot;font-size: 20px;&quot;&gt;Generic Python Debugger&lt;br&gt;&lt;/font&gt;" style="rounded=0;whiteSpace=wrap;html=1;strokeColor=#000000;fillColor=#FFFFFF;strokeWidth=2;fontColor=#000000;" vertex="1" parent="1">
                    <mxGeometry x="640" y="390" width="150" height="73.04347826086956" as="geometry"/>
                </mxCell>
                <mxCell id="39" value="" style="group" vertex="1" connectable="0" parent="1">
                    <mxGeometry x="40" y="70" width="380" height="170" as="geometry"/>
                </mxCell>
                <mxCell id="36" value="" style="rounded=1;whiteSpace=wrap;html=1;strokeColor=#000000;fillColor=#CCCCCC;fontColor=#000000;strokeWidth=2;fontSize=17;align=left;" vertex="1" parent="39">
                    <mxGeometry width="380" height="170" as="geometry"/>
                </mxCell>
                <mxCell id="37" value="&lt;font style=&quot;font-size: 27px;&quot; color=&quot;#000000&quot;&gt;Java Development Tool&lt;/font&gt;" style="text;html=1;strokeColor=none;fillColor=none;align=center;verticalAlign=middle;whiteSpace=wrap;rounded=0;" vertex="1" parent="39">
                    <mxGeometry x="38.261132227452364" y="33.26086956521739" width="124.34867973922019" height="103.47826086956523" as="geometry"/>
                </mxCell>
                <mxCell id="38" value="&lt;font style=&quot;font-size: 20px;&quot;&gt;Java Debugger&lt;/font&gt;" style="rounded=0;whiteSpace=wrap;html=1;strokeColor=#000000;fillColor=#FFFFFF;strokeWidth=2;fontColor=#000000;" vertex="1" parent="39">
                    <mxGeometry x="210.436227250988" y="59.130434782608695" width="143.47924585294638" height="51.739130434782616" as="geometry"/>
                </mxCell>
                <mxCell id="52" style="edgeStyle=none;html=1;exitX=1;exitY=0.5;exitDx=0;exitDy=0;entryX=0;entryY=0.5;entryDx=0;entryDy=0;strokeColor=#000000;strokeWidth=2;" edge="1" parent="1" source="38" target="50">
                    <mxGeometry relative="1" as="geometry"/>
                </mxCell>
                <mxCell id="53" style="edgeStyle=none;html=1;exitX=1;exitY=0.5;exitDx=0;exitDy=0;entryX=0;entryY=0.5;entryDx=0;entryDy=0;strokeColor=#000000;strokeWidth=2;" edge="1" parent="1" source="43" target="51">
                    <mxGeometry relative="1" as="geometry"/>
                </mxCell>
                <mxCell id="54" style="edgeStyle=none;html=1;exitX=1;exitY=0.5;exitDx=0;exitDy=0;entryX=0;entryY=0.5;entryDx=0;entryDy=0;strokeColor=#000000;strokeWidth=2;" edge="1" parent="1" source="47" target="50">
                    <mxGeometry relative="1" as="geometry"/>
                </mxCell>
                <mxCell id="55" style="edgeStyle=none;html=1;exitX=1;exitY=0.5;exitDx=0;exitDy=0;entryX=0;entryY=0.5;entryDx=0;entryDy=0;strokeColor=#000000;strokeWidth=2;" edge="1" parent="1" source="48" target="51">
                    <mxGeometry relative="1" as="geometry"/>
                </mxCell>
                <mxCell id="57" value="&lt;p style=&quot;line-height: 120%;&quot;&gt;&lt;font style=&quot;font-size: 20px;&quot; color=&quot;#000000&quot;&gt;Communication here is too difficult&lt;/font&gt;&lt;/p&gt;" style="text;html=1;strokeColor=none;fillColor=none;align=center;verticalAlign=middle;whiteSpace=wrap;rounded=0;fontSize=22;spacing=2;labelBackgroundColor=#FFFFFF;" vertex="1" parent="1">
                    <mxGeometry x="457.5" y="300" width="145" height="90" as="geometry"/>
                </mxCell>
            </root>
        </mxGraphModel>
    </diagram>
</mxfile>